FFmpeg version SVN-r25716, Copyright (c) 2000-2010 the FFmpeg developers  built on Nov 10 2010 12:23:18 with gcc 4.1.2 20080704 (Red Hat 4.1.2-48)  configuration: --enable-libmp3lame --enable-shared --disable-mmx --arch=x86_64  libavutil     50.33. 0 / 50.33. 0  libavcore      0.12. 1 /  0.12. 1  libavcodec    52.94. 4 / 52.94. 4  libavformat   52.84. 0 / 52.84. 0  libavdevice   52. 2. 2 / 52. 2. 2  libavfilter    1.59. 0 /  1.59. 0  libswscale     0.12. 0 /  0.12. 0Input #0, avi, from '/RAID10/data/converted_video_files/19336.avi':  Metadata:    encoder         : CanonMVI01  Duration: 00:02:59.99, start: 0.000000, bitrate: 1771 kb/s    Stream #0.0: Video: mjpeg, yuvj422p, 320x240, 15 tbr, 15 tbn, 15 tbc    Stream #0.1: Audio: pcm_u8, 11024 Hz, 1 channels, u8, 88 kb/s[buffer @ 0xc06dd40] w:320 h:240 pixfmt:yuvj422p[ffsink @ 0xc07b010] auto-inserting filter 'auto-inserted scaler 0' between the filter 'src' and the filter 'out'[scale @ 0xc07b330] w:320 h:240 fmt:yuvj422p -> w:320 h:240 fmt:yuv420p flags:0x4Output #0, flv, to '/RAID10/data/converted_video_files/19336.flv':  Metadata:    encoder         : Lavf52.84.0    Stream #0.0: Video: flv, yuv420p, 320x240, q=2-31, 600 kb/s, 1k tbn, 24 tbc    Stream #0.1: Audio: libmp3lame, 22050 Hz, 1 channels, s16, 96 kb/sStream mapping:  Stream #0.0 -> #0.0  Stream #0.1 -> #0.1Press [q] to stop encodingWarning, using s16 intermediate sample format for resamplingframe=   62 fps=  0 q=2.3 size=     343kB time=4.08 bitrate= 688.8kbits/s    frame=  130 fps=121 q=2.4 size=     699kB time=8.62 bitrate= 664.2kbits/s    frame=  209 fps=135 q=2.4 size=    1130kB time=13.92 bitrate= 665.3kbits/s    frame=  275 fps=133 q=2.4 size=    1490kB time=18.29 bitrate= 667.2kbits/s    frame=  333 fps=130 q=2.3 size=    1814kB time=22.17 bitrate= 670.3kbits/s    frame=  394 fps=127 q=2.2 size=    2151kB time=26.25 bitrate= 671.3kbits/s    frame=  444 fps=124 q=2.2 size=    2428kB time=29.58 bitrate= 672.3kbits/s    frame=  510 fps=125 q=2.2 size=    2802kB time=33.96 bitrate= 675.9kbits/s    frame=  592 fps=129 q=2.2 size=    3265kB time=39.42 bitrate= 678.6kbits/s    frame=  672 fps=132 q=2.1 size=    3711kB time=44.75 bitrate= 679.3kbits/s    frame=  743 fps=132 q=2.1 size=    4115kB time=49.50 bitrate= 681.0kbits/s    frame=  793 fps=130 q=1.6 size=    4406kB time=52.83 bitrate= 683.1kbits/s    frame=  880 fps=133 q=2.1 size=    4899kB time=58.62 bitrate= 684.5kbits/s    frame=  956 fps=135 q=2.1 size=    5329kB time=63.71 bitrate= 685.2kbits/s    frame= 1046 fps=138 q=2.0 size=    5844kB time=69.71 bitrate= 686.7kbits/s    frame= 1132 fps=139 q=2.0 size=    6330kB time=75.42 bitrate= 687.6kbits/s    frame= 1180 fps=137 q=2.0 size=    6602kB time=78.62 bitrate= 687.9kbits/s    frame= 1226 fps=135 q=2.0 size=    6865kB time=81.71 bitrate= 688.3kbits/s    frame= 1287 fps=134 q=2.0 size=    7209kB time=85.75 bitrate= 688.7kbits/s    frame= 1371 fps=136 q=2.0 size=    7683kB time=91.38 bitrate= 688.8kbits/s    frame= 1460 fps=136 q=2.0 size=    8180kB time=97.29 bitrate= 688.8kbits/s    frame= 1510 fps=136 q=2.0 size=    8459kB time=100.62 bitrate= 688.7kbits/s    frame= 1579 fps=136 q=2.0 size=    8847kB time=105.25 bitrate= 688.6kbits/s    frame= 1644 fps=136 q=2.0 size=    9208kB time=109.58 bitrate= 688.3kbits/s    frame= 1689 fps=134 q=2.0 size=    9462kB time=112.58 bitrate= 688.5kbits/s    frame= 1754 fps=134 q=2.0 size=    9832kB time=116.92 bitrate= 688.9kbits/s    frame= 1833 fps=134 q=2.0 size=   10267kB time=122.17 bitrate= 688.4kbits/s    [mjpeg @ 0xc067eb0] mjpeg_decode_dc: bad vlc: 0:0 (0xc179fc0)[mjpeg @ 0xc067eb0] error dc[mjpeg @ 0xc067eb0] error y=21 x=17frame= 1858 fps=133 q=2.5 Lsize=   10415kB time=123.83 bitrate= 689.0kbits/s    video:8858kB audio:1454kB global headers:0kB muxing overhead 1.004139%